G75*
%MOIN*%
%OFA0B0*%
%FSLAX24Y24*%
%IPPOS*%
%LPD*%
%AMOC8*
5,1,8,0,0,1.08239X$1,22.5*
%
%ADD10C,0.0000*%
%ADD11C,0.0020*%
%ADD12C,0.0080*%
D10*
X000487Y000100D02*
X000487Y004170D01*
X008479Y004170D01*
X008479Y000100D01*
X000487Y000100D01*
D11*
X002347Y001083D02*
X002420Y001010D01*
X002493Y001083D01*
X002493Y001230D01*
X002568Y001193D02*
X002568Y001047D01*
X002604Y001010D01*
X002678Y001010D01*
X002714Y001047D01*
X002789Y001047D02*
X002825Y001010D01*
X002899Y001010D01*
X002935Y001047D01*
X002789Y001047D02*
X002789Y001193D01*
X002825Y001230D01*
X002899Y001230D01*
X002935Y001193D01*
X002714Y001193D02*
X002678Y001230D01*
X002604Y001230D01*
X002568Y001193D01*
X002347Y001230D02*
X002347Y001083D01*
X002347Y002060D02*
X002347Y002280D01*
X002420Y002207D01*
X002493Y002280D01*
X002493Y002060D01*
X002568Y002097D02*
X002604Y002060D01*
X002678Y002060D01*
X002714Y002097D01*
X002714Y002243D01*
X002678Y002280D01*
X002604Y002280D01*
X002568Y002243D01*
X002568Y002097D01*
X002789Y002097D02*
X002825Y002060D01*
X002899Y002060D01*
X002935Y002097D01*
X002935Y002133D01*
X002899Y002170D01*
X002825Y002170D01*
X002789Y002207D01*
X002789Y002243D01*
X002825Y002280D01*
X002899Y002280D01*
X002935Y002243D01*
X003010Y002280D02*
X003083Y002280D01*
X003046Y002280D02*
X003046Y002060D01*
X003010Y002060D02*
X003083Y002060D01*
X002899Y003010D02*
X002789Y003010D01*
X002789Y003230D01*
X002899Y003230D01*
X002935Y003193D01*
X002935Y003047D01*
X002899Y003010D01*
X002714Y003010D02*
X002714Y003230D01*
X002568Y003230D02*
X002714Y003010D01*
X002568Y003010D02*
X002568Y003230D01*
X002493Y003193D02*
X002457Y003230D01*
X002383Y003230D01*
X002347Y003193D01*
X002347Y003047D01*
X002383Y003010D01*
X002457Y003010D01*
X002493Y003047D01*
X002493Y003120D01*
X002420Y003120D01*
X005697Y003083D02*
X005807Y003083D01*
X005843Y003120D01*
X005843Y003193D01*
X005807Y003230D01*
X005697Y003230D01*
X005697Y003010D01*
X005770Y003083D02*
X005843Y003010D01*
X005918Y003010D02*
X006064Y003010D01*
X006139Y003047D02*
X006175Y003010D01*
X006249Y003010D01*
X006285Y003047D01*
X006285Y003083D01*
X006249Y003120D01*
X006175Y003120D01*
X006139Y003157D01*
X006139Y003193D01*
X006175Y003230D01*
X006249Y003230D01*
X006285Y003193D01*
X006360Y003230D02*
X006360Y003010D01*
X006506Y003010D01*
X006654Y003010D02*
X006654Y003230D01*
X006581Y003230D02*
X006727Y003230D01*
X006506Y003230D02*
X006360Y003230D01*
X006360Y003120D02*
X006433Y003120D01*
X006064Y003230D02*
X005918Y003230D01*
X005918Y003010D01*
X005918Y003120D02*
X005991Y003120D01*
X006007Y002230D02*
X005933Y002230D01*
X005897Y002193D01*
X005897Y002157D01*
X005933Y002120D01*
X006007Y002120D01*
X006043Y002083D01*
X006043Y002047D01*
X006007Y002010D01*
X005933Y002010D01*
X005897Y002047D01*
X006118Y002047D02*
X006154Y002010D01*
X006228Y002010D01*
X006264Y002047D01*
X006339Y002083D02*
X006485Y002230D01*
X006339Y002230D02*
X006339Y002010D01*
X006375Y002120D02*
X006485Y002010D01*
X006264Y002193D02*
X006228Y002230D01*
X006154Y002230D01*
X006118Y002193D01*
X006118Y002047D01*
X006043Y002193D02*
X006007Y002230D01*
X005947Y001230D02*
X006020Y001157D01*
X006093Y001230D01*
X006093Y001010D01*
X006168Y001010D02*
X006241Y001010D01*
X006204Y001010D02*
X006204Y001230D01*
X006168Y001230D02*
X006241Y001230D01*
X006315Y001193D02*
X006315Y001157D01*
X006352Y001120D01*
X006425Y001120D01*
X006462Y001083D01*
X006462Y001047D01*
X006425Y001010D01*
X006352Y001010D01*
X006315Y001047D01*
X006536Y001047D02*
X006573Y001010D01*
X006646Y001010D01*
X006683Y001047D01*
X006683Y001193D01*
X006646Y001230D01*
X006573Y001230D01*
X006536Y001193D01*
X006536Y001047D01*
X006462Y001193D02*
X006425Y001230D01*
X006352Y001230D01*
X006315Y001193D01*
X005947Y001230D02*
X005947Y001010D01*
D12*
X005619Y000850D02*
X005619Y001350D01*
X005487Y001350D02*
X005487Y000850D01*
X005237Y000600D01*
X003737Y000600D01*
X003487Y000850D01*
X003487Y001350D01*
X003737Y001600D01*
X005237Y001600D01*
X005487Y001850D01*
X005487Y002350D01*
X005237Y002600D01*
X003737Y002600D01*
X003487Y002850D01*
X003487Y003350D01*
X003737Y003600D01*
X005237Y003600D01*
X005487Y003350D01*
X005487Y002850D01*
X005237Y002600D01*
X003737Y002600D02*
X003487Y002350D01*
X003487Y001850D01*
X003737Y001600D01*
X005237Y001600D02*
X005487Y001350D01*
X006987Y001350D02*
X006987Y000850D01*
X007237Y000600D01*
X007737Y000600D01*
X007987Y000850D01*
X007987Y001350D01*
X007737Y001600D01*
X007987Y001850D01*
X007987Y002350D01*
X007737Y002600D01*
X007987Y002850D01*
X007987Y003350D01*
X007737Y003600D01*
X007237Y003600D01*
X006987Y003350D01*
X006987Y002850D01*
X007237Y002600D01*
X006987Y002350D01*
X006987Y001850D01*
X007237Y001600D01*
X006987Y001350D01*
X001987Y001350D02*
X001987Y000850D01*
X001737Y000600D01*
X001237Y000600D01*
X000987Y000850D01*
X000987Y001350D01*
X001237Y001600D01*
X000987Y001850D01*
X000987Y002350D01*
X001237Y002600D01*
X000987Y002850D01*
X000987Y003350D01*
X001237Y003600D01*
X001737Y003600D01*
X001987Y003350D01*
X001987Y002850D01*
X001737Y002600D01*
X001987Y002350D01*
X001987Y001850D01*
X001737Y001600D01*
X001987Y001350D01*
M02*
